<svg width="64" height="64" viewBox="0 0 64 64" xmlns="http://www.w3.org/2000/svg">
  <!-- Variation B2: Bold solid book (B) + bookmark ribbon (from C) -->
  <!-- left cover -->
  <path d="M32 18 C24 11 14 11 7 13 L7 51 C14 49 24 49 32 56 Z" fill="#D98324"/>
  <!-- right cover -->
  <path d="M32 18 C40 11 50 11 57 13 L57 51 C50 49 40 49 32 56 Z" fill="#B5651D"/>
  <!-- left page inset -->
  <path d="M32 22 C25 16 16 16 11 17.5 L11 47 C16 45.5 25 45.5 32 51 Z" fill="#FFF6E5"/>
  <!-- right page inset -->
  <path d="M32 22 C39 16 48 16 53 17.5 L53 47 C48 45.5 39 45.5 32 51 Z" fill="#FBE9CC"/>
  <!-- spine -->
  <rect x="30" y="20" width="4" height="35" rx="2" fill="#7A4115"/>
  <!-- bookmark ribbon -->
  <path d="M41 14 L41 35 L45 30 L49 35 L49 14.5 Z" fill="#B5302B"/>
</svg>
